# xmcd
#
# Track frame offsets:
# 150
# 18186
# 42877
# 62915
# 76157
# 97363
# 115720
# 125443
# 145277
# 158354
#
# Disc length: 2433 seconds
#
# Revision: 0
# Processed by: cddbd v1.4PL0 Copyright (c) Steve Scherf et al.
# Submitted via: Axialis_AX_CDPlayer 2.6
#
DISCID=7a097f0a
DTITLE=Chris Rea - Dancing Down The Sony Road CD1
DYEAR=1900
DGENRE=
TTITLE0=Easy Ryder
TTITLE1=Stony Road
TTITLE2=Dancing The Blues Away
TTITLE3=Catfish Girl
TTITLE4=Burning Feet
TTITLE5=Slow Dance
TTITLE6=Segway
TTITLE7=Mississippi
TTITLE8=So Lonely
TTITLE9=Heading For The City
EXTD=
EXTT0=
EXTT1=
EXTT2=
EXTT3=
EXTT4=
EXTT5=
EXTT6=
EXTT7=
EXTT8=
EXTT9=
PLAYORDER=
